<?xml version="1.0" encoding="utf-8"?>
<svg xmlns="http://www.w3.org/2000/svg" height="32" width="32" viewBox="0 0 32 32">
  <g>
    <path id="path1" transform="rotate(0,16,16) translate(0,1.00001072882839) scale(0.999999284744774,0.999999284744774)  " fill="#181717" d="M9.0419922,8.9890141C8.6549683,8.9890141 8.2719727,9.0559087 7.9019775,9.1829838 7.5269775,9.3129887 7.1859741,9.5150151 6.8919678,9.7829594 6.5969849,10.052979 6.3569946,10.396973 6.1779785,10.807007 5.9990234,11.215943 5.9089966,11.701905 5.9089966,12.25 5.9089966,12.69397 5.9619751,13.086915 6.0650024,13.418946 6.1679688,13.75 6.3129883,14.054932 6.4949951,14.322998 6.6760254,14.585938 6.8909912,14.829957 7.1339722,15.046998 7.3699951,15.255982 7.625,15.461915 7.9110107,15.676026 8.1599731,15.835938 8.3930054,15.987915 8.6099854,16.131958 8.8170166,16.27295 8.9979858,16.417969 9.1500244,16.565918 9.2919922,16.708008 9.4049683,16.865967 9.4840088,17.033936 9.5599976,17.198975 9.598999,17.39795 9.598999,17.626954 9.598999,18.057984 9.4879761,18.374024 9.2600098,18.591919 9.03302,18.807007 8.6679688,18.916993 8.1760254,18.916993 8.0339966,18.916993 7.8770142,18.89502 7.7089844,18.854981 7.53302,18.810914 7.3579712,18.749024 7.184021,18.671021 7.0100098,18.591919 6.8439941,18.494019 6.6900024,18.380005 6.539978,18.268921 6.40802,18.142945 6.2990112,18.003907L6.2539673,17.947022 5.914978,17.947022 5.914978,20.125977 5.9869995,20.190918C6.1119995,20.302979 6.2730103,20.401001 6.4819946,20.49292 6.6710205,20.570923 6.8709717,20.640015 7.085022,20.698975 7.2940063,20.753907 7.5009766,20.796998 7.7009888,20.826905 7.9060059,20.855957 8.0789795,20.871949 8.2199707,20.871949 8.6400146,20.871949 9.0419922,20.812989 9.4119873,20.698975 9.7960205,20.583985 10.140991,20.392945 10.438965,20.128907 10.734985,19.86792 10.973999,19.525025 11.14801,19.109009 11.320007,18.695923 11.40802,18.189942 11.40802,17.604981 11.40802,17.166016 11.349976,16.768921 11.232971,16.419922 11.119019,16.072022 10.960022,15.75293 10.765015,15.471924 10.572021,15.19397 10.344971,14.93396 10.088013,14.700928 9.8369751,14.473023 9.5709839,14.258912 9.2750244,14.043946 9.0109863,13.881958 8.7780151,13.729981 8.5769653,13.590943 8.3880005,13.458985 8.2249756,13.322998 8.09198,13.182984 7.9710083,13.054932 7.8770142,12.911011 7.8120117,12.755982 7.75,12.601929 7.7180176,12.413941 7.7180176,12.195923 7.7180176,11.968995 7.7579956,11.776001 7.8380127,11.622925 7.9190063,11.464966 8.0219727,11.338013 8.1500244,11.237915 8.2780151,11.138916 8.427002,11.065918 8.59198,11.020997 8.7680054,10.973999 8.9400024,10.951905 9.1190186,10.951905 9.7719727,10.951905 10.288025,11.152955 10.697998,11.567017L10.771973,11.642945 11.065002,11.642945 11.065002,9.4879155 10.973999,9.4239506C10.554993,9.1309819,9.9240112,8.9890141,9.0419922,8.9890141z M20.573027,3.6670611C22.404024,3.6670613 23.888021,5.1550455 23.888021,6.9910259 23.888021,7.0484004 23.886572,7.1054349 23.883709,7.1620946L23.879372,7.2192845 24.009834,7.2784743C25.793093,8.1240506,27.240711,9.5092158,28.109419,11.205002L28.288485,11.577524 28.346056,11.570189C28.457504,11.558843 28.570587,11.55303 28.685024,11.55303 30.516024,11.55303 32.000023,13.041015 32.000023,14.876996 32.000023,16.712975 30.516024,18.200959 28.685024,18.200959 28.570587,18.200959 28.457504,18.195147 28.346056,18.1838L28.305145,18.178587 28.290848,18.211493C27.431219,20.122759,25.851656,21.679499,23.874537,22.57828L23.859953,22.584603 23.870909,22.671072C23.882225,22.782826 23.888021,22.896218 23.888021,23.010968 23.888021,24.846981 22.404024,26.334992 20.573027,26.334992 20.184027,26.334992 19.816029,26.254992 19.469028,26.131991L19.469028,19.889943C19.816029,19.766942 20.184027,19.686942 20.573027,19.686942 21.7174,19.686942 22.726227,20.268197 23.321918,21.152382L23.336514,21.175213 23.337711,21.174675C24.825304,20.477942,26.032904,19.336586,26.757578,17.93924L26.888586,17.670025 26.831501,17.633332C25.949715,17.036034 25.370028,16.024483 25.370028,14.876996 25.370028,13.729508 25.949715,12.717956 26.831501,12.120657L26.873781,12.093481 26.757578,11.854691C26.071045,10.53089,24.951082,9.4368415,23.570238,8.7329325L23.435471,8.667047 23.40814,8.7147135C22.826771,9.674169 21.774618,10.31499 20.573027,10.31499 20.184027,10.31499 19.816029,10.234991 19.469028,10.111992L19.469028,3.8700595C19.816029,3.7470605,20.184027,3.6670613,20.573027,3.6670611z M18,0L18,30 0,27.124024 0,2.8769533z" />
  </g>
</svg>

