<?xml version="1.0" encoding="utf-8"?>
<svg xmlns="http://www.w3.org/2000/svg" height="32" width="32" viewBox="0 0 32 32">
  <g>
    <path id="path1" transform="rotate(0,16,16) translate(3.80000019073486,0) scale(1,1)  " fill="#050505" d="M17.300022,22.300003L17.399998,22.300003 18.000004,22.300003 18.000004,23C18.399998,23,18.700016,23.100006,19.000004,23.200005L18.800022,23.800003C18.60001,23.700005 18.300022,23.600006 17.899998,23.600006 17.399998,23.600006 17.200016,23.800003 17.200016,24.100006 17.200016,24.400002 17.399998,24.5 18.000004,24.800003 18.800022,25.100006 19.10001,25.5 19.10001,26.100006 19.10001,26.700005 18.700016,27.200005 17.899998,27.300003L17.899998,28 17.300022,28 17.300022,27.300003C16.899998,27.300003,16.399998,27.200005,16.200016,27L16.399998,26.300003C16.700016,26.5 17.10001,26.600006 17.500004,26.600006 17.899998,26.600006 18.200016,26.400002 18.200016,26.100006 18.200016,25.800003 18.000004,25.600006 17.399998,25.400002 16.700016,25.100006 16.200016,24.800003 16.200016,24.200005 16.200016,23.600006 16.60001,23.100006 17.300022,23z M9.3000203,20.800003C8.8000203,21.600006,8.3000203,22.400002,7.8000199,23.200005L9.3000203,23.200005z M4.7000133,18.600006L4.7000133,23.200005 7.5000016,23.200005C6.7000138,22.200005 6.1000077,21 5.2000133,20.100006 5.3000194,19.900002 5.5000011,19.700005 5.8000194,19.5 6.2000138,19.800003 6.5000016,20.100006 7.0000016,20.5 7.1000077,20.5 7.5000016,20.900002 7.6000077,20.900002 7.7000138,20.900002 7.8999954,20.5 8.1000081,20.300003 8.500002,19.900002 8.8999959,19.400002 9.3000203,18.900002L9.3000203,18.600006z M13.899997,18.400002L19.700016,18.400002 19.700016,19.700005 13.899997,19.700005z M11.899997,16.700005L12.600009,16.700005C12.600009,16.800003 12.399997,16.900002 12.300021,17 11.399997,17.900002 10.700014,18.800003 9.8999959,19.900002L9.8999959,23.900002 4.1000072,23.900002 4.1000072,18 10.000002,18 10.000002,18.300003C10.600008,17.600006,11.300021,17.100006,11.899997,16.700005z M13.899997,12.400002L19.700016,12.400002 19.700016,13.700005 13.899997,13.700005z M9.3000203,12.400002C8.8000203,13.200005,8.3000203,14,7.8000199,14.800003L9.3000203,14.800003z M4.7000133,10.200005L4.7000133,14.800003 7.5000016,14.800003C6.7000138,13.800003 6.1000077,12.600006 5.2000133,11.700005 5.3000194,11.5 5.5000011,11.300003 5.8000194,11.100006 6.2000138,11.400002 6.5000016,11.700005 7.0000016,12.100006 7.1000077,12.100006 7.5000016,12.5 7.6000077,12.5 7.7000138,12.5 7.8999954,12.100006 8.1000081,11.900002 8.500002,11.5 8.8999959,11 9.3000203,10.5L9.3000203,10.200005z M11.899997,8.3000031L12.600009,8.3000031C12.600009,8.4000015 12.399997,8.5 12.300021,8.6000061 11.399997,9.5 10.700014,10.400002 9.8999959,11.5L9.8999959,15.5 4.1000072,15.5 4.1000072,9.6000061 10.000002,9.6000061 10.000002,9.9000015C10.600008,9.2000046,11.300021,8.7000046,11.899997,8.3000031z M2.3000187,2.4000015L2.3000187,29.600006 22.100012,29.600006 22.100012,8.5 15.800022,8.5 15.800022,2.4000015z M0,0L15.800022,0 17.10001,0 24.4,7.1000061 24.4,32 0,32z" />
  </g>
</svg>

