<?xml version="1.0" encoding="utf-8"?>
<svg xmlns="http://www.w3.org/2000/svg" height="32" width="32" viewBox="0 0 32 32">
  <g>
    <path id="path1" transform="rotate(0,16,16) translate(0,2.00750064849854) scale(1,1)  " fill="#000000" d="M16.204987,17.635C15.700989,17.635 15.261993,17.814014 14.889984,18.172016 14.518982,18.530994 14.333008,18.956013 14.333008,19.446003 14.333008,19.939014 14.518982,20.360004 14.889984,20.711018 15.261993,21.064012 15.700989,21.241014 16.204987,21.241014 16.701996,21.241014 17.135986,21.064012 17.507996,20.711018 17.880005,20.360004 18.065002,19.939014 18.065002,19.446003 18.065002,18.956013 17.880005,18.530994 17.507996,18.172016 17.135986,17.814014 16.701996,17.635 16.204987,17.635z M16.195007,6.93301C15.678009,6.93301 15.234985,7.1100115 14.867004,7.4630083 14.497986,7.8149976 14.315002,8.2390088 14.315002,8.7369947 14.315002,8.9820203 14.365997,9.3500003 14.470001,9.8369998 14.572998,10.323999 14.684998,10.823022 14.80899,11.334008 14.944,11.890008 15.100006,12.579002 15.273987,13.398003 15.447998,14.219016 15.631989,15.247001 15.825989,16.481008L16.572998,16.481008C16.766998,15.261008 16.950989,14.234 17.125,13.404015 17.299988,12.573997 17.454987,11.879998 17.591003,11.323022 17.733002,10.736016 17.850006,10.225 17.944,9.7900028 18.037994,9.3530216 18.083984,9.0010022 18.083984,8.7369947 18.083984,8.2390088 17.89801,7.8149976 17.522003,7.4630083 17.14801,7.1100115 16.705994,6.93301 16.195007,6.93301z M4.7219849,4.4040198L27.277985,4.4040198 27.277985,23.580004 4.7219849,23.580004z M3.3890076,3.0720195L3.3890076,24.91301 28.612,24.91301 28.612,3.0720195z M1.1799927,0L30.821991,0C31.472992,6.1992978E-08,32,0.52700782,32,1.1809993L32,26.805008C32,27.456984,31.472992,27.984999,30.821991,27.984999L1.1799927,27.984999C0.52999878,27.984999,0,27.456984,0,26.805008L0,1.1809993C0,0.52700782,0.52999878,6.1992978E-08,1.1799927,0z" />
  </g>
</svg>

