<?xml version="1.0" encoding="utf-8"?>
<svg xmlns="http://www.w3.org/2000/svg" height="32" width="32" viewBox="0 0 32 32">
  <g>
    <path id="path1" transform="rotate(0,16,16) translate(4.14299770760591,0) scale(0.999999761581478,0.999999761581478)  " fill="#010101" d="M5.9280306,15.819042L17.785024,15.819042C18.331023,15.819042 18.773023,16.26104 18.773023,16.807036 18.773023,17.353032 18.331023,17.79503 17.785024,17.79503L5.9280306,17.79503C5.3820305,17.79503 4.9400311,17.353032 4.9400311,16.807036 4.9400311,16.26104 5.3820305,15.819042 5.9280306,15.819042z M5.9280306,10.879011L17.785024,10.879011C18.331023,10.879011 18.773023,11.321009 18.773023,11.867004 18.773023,12.413001 18.331023,12.854998 17.785024,12.854998L5.9280306,12.854998C5.3820305,12.854998 4.9400311,12.413001 4.9400311,11.867004 4.9400311,11.321009 5.3820305,10.879011 5.9280306,10.879011z M5.9280306,5.9380016L17.785024,5.9380016C18.331023,5.9380016 18.773023,6.3800125 18.773023,6.9260254 18.773023,7.4720383 18.331023,7.9140491 17.785024,7.9140491L5.9280306,7.9140491C5.3820305,7.9140491 4.9400311,7.4720383 4.9400311,6.9260254 4.9400311,6.3800125 5.3820305,5.9380016 5.9280306,5.9380016z M1.9760008,1.9760036L1.9760008,28.344216 3.078995,29.339038 5.2719865,27.363009 7.4630247,29.339038 9.6519881,27.363009 11.844003,29.339038 14.038032,27.363986 16.231999,29.340015 18.426028,27.365023 20.625001,29.340991 21.73801,28.340238 21.73801,1.9760036z M1.9760008,0L21.73801,0C22.82701,0,23.714011,0.88700294,23.714011,1.9760036L23.714011,29.643056 23.243745,29.643056 20.625001,31.998056 18.427005,30.022027 16.231999,31.999032 14.038032,30.023004 11.843026,32.000009 9.6530257,30.024041 7.4640012,32.000009 5.2719865,30.024041 3.078995,32.000009 0.46649994,29.643056 0,29.643056 0,1.9760036C-4.4703484E-07,0.88700294,0.88599998,0,1.9760008,0z" />
  </g>
</svg>

