<?xml version="1.0" encoding="utf-8"?>
<svg xmlns="http://www.w3.org/2000/svg" height="32" width="32" viewBox="0 0 32 32">
  <g>
    <path id="path1" transform="rotate(0,16,16) translate(1.6,4.3) scale(0.9,0.9)  " fill="#050505" d="M18.699951,22.600006C19.599976,22.600006 20.399963,23.400024 20.399963,24.300018 20.399963,25.200012 19.599976,26 18.699951,26 17.799988,26 17,25.200012 17,24.300018 17,23.400024 17.799988,22.600006 18.699951,22.600006z M13.099976,22.600006C14,22.600006 14.799988,23.400024 14.799988,24.300018 14.799988,25.200012 14,26 13.099976,26 12.199951,26 11.399963,25.200012 11.399963,24.300018 11.299988,23.400024 12.099976,22.600006 13.099976,22.600006z M18.899963,15L18.899963,16.700012 20.5,16.700012 20.599976,16.700012 21.099976,15z M15.099976,15L15.099976,16.700012 17.699951,16.700012 17.699951,15z M12.099976,15L12.899963,16.700012 13.799988,16.700012 13.799988,15z M18.899963,12.200012L18.899963,13.800018 21.5,13.800018 22,12.200012z M15.099976,12.200012L15.099976,13.800018 17.699951,13.800018 17.699951,12.200012z M10.799988,12.200012L11.599976,13.800018 13.899963,13.800018 13.899963,12.200012z M18.899963,9.2000122L18.899963,10.900024 22.399963,10.900024 22.899963,9.5C22.899963,9.4000244,23,9.3000183,23,9.2000122z M15.099976,9.2000122L15.099976,10.900024 17.699951,10.900024 17.699951,9.2000122z M5.2999878,2L5.2999878,2.9000244C4.3999634,3.1000061 3.8999634,3.7000122 3.8999634,4.5 3.8999634,5.5 4.6999512,5.9000244 5.5,6.2000122 6.1999512,6.5 6.3999634,6.7000122 6.3999634,7 6.3999634,7.3000183 6.0999756,7.6000061 5.5999756,7.6000061 5,7.6000061 4.5,7.4000244 4.2999878,7.2000122L4.0999756,7.1000061 3.7999878,8.2000122 3.8999634,8.3000183C4.1999512,8.5,4.7999878,8.7000122,5.2999878,8.7000122L5.2999878,9.6000061 6.2999878,9.6000061 6.2999878,8.6000061C7.1999512,8.4000244 7.7999878,7.8000183 7.7999878,6.9000244 7.7999878,6.1000061 7.2999878,5.5 6.2999878,5.1000061 5.5999756,4.8000183 5.2999878,4.6000061 5.2999878,4.4000244 5.2999878,4.1000061 5.5999756,3.9000244 6,3.9000244 6.5999756,3.9000244 6.8999634,4.1000061 7.0999756,4.2000122L7.1999512,4.3000183 7.5,3.2000122 7.3999634,3.1000061C7.1999512,3,6.7999878,2.9000244,6.2999878,2.8000183L6.2999878,2z M27.799988,1.6000061L31.099976,1.6000061C31.599976,1.6000061 32,2 32,2.5 32,3 31.599976,3.4000244 31.099976,3.4000244L27.799988,3.4000244C27,3.4000244 26.799988,3.5 26.5,4.6000061 26.099976,5.7000122 22,19.700012 22,19.700012L22,19.800018C22,19.900024,20.899963,22.400024,18.299988,22.400024L10.899963,22.400024C10.399963,22.400024 10,22 10,21.5 10,21 10.399963,20.600006 10.899963,20.600006L18.299988,20.600006C19.5,20.600006 20.099976,19.400024 20.299988,19.200012 20.299988,19.100006 20.399963,18.900024 20.399963,18.700012L12.699951,18.700012C11.699951,18.700012,11.299988,17.900024,11.199951,17.600006L8.6999512,12.200012C9.3999634,11.900024,10.099976,11.5,10.599976,11L13.799988,11 13.799988,9.2000122 11.799988,9.2000122 11.799988,9.1000061C12,8.6000061,12.199951,8,12.299988,7.5L12.299988,7.2000122 12.5,7.2000122 23,7.2000122C23.099976,7.2000122,23.299988,7.2000122,23.399963,7.3000183L23.5,7.3000183C24,5.6000061 24.399963,4.4000244 24.399963,4.1000061 25,2.9000244 25.699951,1.6000061 27.799988,1.6000061z M5.6999512,0C8.8999634,0 11.399963,2.6000061 11.399963,5.7000122 11.399963,8.9000244 8.7999878,11.400024 5.6999512,11.400024 2.5999756,11.5 0,8.9000244 0,5.7000122 0,2.6000061 2.5999756,0 5.6999512,0z" />
  </g>
</svg>

